<svg id="Group_1" data-name="Group 1" xmlns="http://www.w3.org/2000/svg" width="122" height="122" viewBox="0 0 122 122">
  <g id="Ellipse_1" data-name="Ellipse 1" fill="#fff" stroke="#4d4545" stroke-width="1">
    <circle cx="61" cy="61" r="61" stroke="none"/>
    <circle cx="61" cy="61" r="60.5" fill="none"/>
  </g>
  <g id="arrow_right" data-name="arrow right" transform="translate(29.514 29.934)">
    <path id="Path_1" data-name="Path 1" d="M28.2,10.772a2.611,2.611,0,0,0-3.7,0L8.767,26.5a2.611,2.611,0,0,0,0,3.7L24.5,45.933a2.614,2.614,0,0,0,3.7-3.7L16.948,30.974H47.323a2.622,2.622,0,1,0,0-5.244H16.948L28.2,14.469A2.611,2.611,0,0,0,28.2,10.772Z" transform="translate(2.494 3.111)" fill="#4d4545"/>
    <path id="Path_2" data-name="Path 2" d="M62.927,0H0V62.927H62.927Z" fill="none"/>
  </g>
</svg>
