<svg xmlns="http://www.w3.org/2000/svg" width="122" height="122" viewBox="0 0 122 122">
  <g id="Group_2" data-name="Group 2" transform="translate(-0.213)">
    <g id="Ellipse_2" data-name="Ellipse 2" transform="translate(0.213)" fill="#fff" stroke="#4d4545" stroke-width="1">
      <circle cx="61" cy="61" r="61" stroke="none"/>
      <circle cx="61" cy="61" r="60.5" fill="none"/>
    </g>
    <g id="arrow_right" data-name="arrow right" transform="translate(29.934 29.934)">
      <path id="Path_1" data-name="Path 1" d="M29.749,10.772a2.611,2.611,0,0,1,3.7,0L49.178,26.5a2.611,2.611,0,0,1,0,3.7L33.446,45.933a2.614,2.614,0,0,1-3.7-3.7L41,30.974H10.622a2.622,2.622,0,0,1,0-5.244H41L29.749,14.469A2.611,2.611,0,0,1,29.749,10.772Z" transform="translate(2.488 3.111)" fill="#4d4545"/>
      <path id="Path_2" data-name="Path 2" d="M0,0H62.927V62.927H0Z" fill="none"/>
    </g>
  </g>
</svg>
